<svg xmlns="http://www.w3.org/2000/svg" width="340" height="340" viewBox="0 0 340 340">
<g>
<path d="M 173.56,27.17 L 175.70,27.37 L 179.98,28.06 L 182.11,28.46 L 186.33,29.57 L 188.43,30.17 L 192.57,31.68 L 194.62,32.48 L 198.65,34.40 L 200.64,35.41 L 204.53,37.73 L 206.45,38.94 L 210.17,41.66 L 215.52,46.21 L 216.97,47.57 L 219.57,50.21 L 220.83,51.53 L 223.12,54.24 L 224.24,55.63 L 226.32,58.59 L 227.34,60.12 L 229.30,63.50 L 230.28,65.26 L 232.22,69.25 L 233.20,71.33 L 235.23,76.09 L 236.26,78.59 L 238.47,84.30 L 239.03,85.80 L 240.22,89.00 L 242.08,94.13 L 243.47,98.02 L 246.28,105.11 L 247.72,108.61 L 250.92,115.58 L 251.77,117.35 L 253.59,121.01 L 254.54,122.87 L 256.60,126.79 L 257.67,128.79 L 260.01,133.07 L 263.91,140.00 L 265.63,143.02 L 268.69,148.80 L 270.15,151.66 L 272.73,157.19 L 273.95,159.92 L 276.06,165.25 L 277.06,167.90 L 278.72,173.10 L 279.50,175.69 L 280.74,180.84 L 281.31,183.42 L 282.15,188.59 L 282.52,191.18 L 282.98,196.44 L 283.27,204.50 L 283.28,207.36 L 283.01,213.02 L 282.83,215.83 L 282.18,221.38 L 281.81,224.14 L 280.80,229.56 L 280.25,232.26 L 278.88,237.55 L 278.15,240.18 L 276.43,245.32 L 275.53,247.87 L 273.47,252.84 L 272.40,255.31 L 270.01,260.10 L 268.78,262.48 L 266.07,267.08 L 264.67,269.36 L 261.64,273.75 L 260.09,275.92 L 256.76,280.10 L 255.06,282.16 L 251.43,286.09 L 249.58,288.03 L 245.67,291.72 L 243.68,293.53 L 239.49,296.95 L 237.36,298.62 L 232.90,301.77 L 230.63,303.30 L 225.91,306.15 L 218.54,310.07 L 217.16,310.75 L 213.84,312.19 L 212.13,312.92 L 208.49,314.33 L 206.67,315.02 L 203.15,316.23 L 198.48,317.65 L 196.30,318.22 L 192.62,319.04 L 190.81,319.41 L 187.03,319.89 L 186.03,320.00 L 183.81,320.16 L 182.66,320.24 L 180.04,320.36 L 178.67,320.42 L 175.50,320.51 L 170.00,320.63 L 167.91,320.67 L 164.34,320.72 L 162.65,320.74 L 159.76,320.74 L 158.39,320.74 L 156.02,320.68 L 154.88,320.65 L 152.87,320.53 L 150.92,320.39 L 147.41,319.86 L 146.52,319.70 L 144.63,319.30 L 143.66,319.09 L 141.50,318.59 L 138.54,317.88 L 132.82,316.22 L 130.01,315.36 L 124.63,313.39 L 121.98,312.37 L 116.99,310.12 L 109.97,306.43 L 107.64,305.07 L 103.15,302.14 L 100.94,300.64 L 96.69,297.43 L 94.61,295.80 L 90.62,292.33 L 88.66,290.57 L 84.95,286.86 L 83.12,284.98 L 79.68,281.04 L 77.99,279.05 L 74.83,274.90 L 73.28,272.80 L 70.41,268.46 L 69.01,266.27 L 66.44,261.75 L 65.20,259.47 L 62.93,254.78 L 61.84,252.42 L 59.90,247.59 L 58.97,245.16 L 57.35,240.19 L 56.58,237.70 L 55.30,232.62 L 54.70,230.07 L 53.76,224.89 L 53.33,222.29 L 52.74,217.03 L 52.49,214.39 L 52.26,209.06 L 52.34,201.00 L 52.45,198.40 L 52.88,193.40 L 53.13,190.92 L 53.86,186.09 L 54.26,183.68 L 55.31,178.92 L 55.88,176.55 L 57.29,171.77 L 58.04,169.37 L 59.83,164.49 L 60.78,162.03 L 62.98,156.94 L 64.13,154.37 L 66.78,148.99 L 71.27,140.50 L 72.69,137.93 L 75.19,133.33 L 76.39,131.11 L 78.52,127.06 L 79.55,125.09 L 81.40,121.42 L 82.30,119.62 L 83.94,116.17 L 85.55,112.75 L 88.47,105.83 L 89.21,104.03 L 90.70,100.22 L 93.06,94.00 L 93.69,92.32 L 94.89,89.15 L 95.48,87.60 L 96.62,84.69 L 97.74,81.84 L 99.85,76.82 L 100.89,74.40 L 102.89,70.13 L 103.89,68.08 L 105.87,64.41 L 106.87,62.64 L 108.92,59.41 L 109.96,57.84 L 112.16,54.91 L 113.30,53.47 L 115.75,50.67 L 119.79,46.45 L 121.43,44.83 L 124.89,41.88 L 126.64,40.46 L 130.30,37.92 L 132.16,36.69 L 136.00,34.56 L 137.94,33.54 L 141.93,31.81 L 143.94,30.99 L 148.04,29.66 L 150.11,29.05 L 154.31,28.13 L 156.42,27.72 L 160.68,27.20 L 162.82,26.99 L 167.11,26.88 L 169.26,26.88 M 163.71,39.22 L 161.08,39.52 L 158.50,39.87 L 157.31,40.11 L 155.01,40.62 L 154.00,40.94 L 148.75,42.38 L 147.24,42.72 L 146.64,42.82 L 145.57,42.99 L 145.26,42.99 L 144.56,43.13 L 143.95,43.36 L 143.58,43.54 L 141.95,44.40 L 140.95,45.03 L 138.84,46.38 L 137.68,47.19 L 135.32,48.88 L 134.12,49.79 L 131.72,51.64 L 130.59,52.57 L 128.37,54.41 L 127.41,55.28 L 125.60,56.95 L 124.93,57.67 L 123.74,59.01 L 123.46,59.50 L 121.70,62.21 L 120.42,63.95 L 119.93,64.50 L 119.07,65.71 L 118.40,66.85 L 118.04,67.53 L 116.59,70.49 L 116.00,72.00 L 113.94,76.47 L 113.22,77.77 L 112.89,78.29 L 112.25,79.22 L 112.00,79.50 L 110.49,81.72 L 109.65,83.50 L 109.47,84.25 L 109.05,85.61 L 108.66,86.70 L 108.43,87.29 L 107.41,89.69 L 106.89,90.71 L 105.56,93.85 L 105.25,94.81 L 105.15,95.21 L 105.00,95.94 L 105.00,96.19 L 104.84,97.13 L 104.59,97.94 L 104.41,98.40 L 103.55,100.33 L 103.00,101.23 L 101.59,104.27 L 101.26,105.31 L 101.15,105.77 L 100.99,106.66 L 100.99,107.00 L 100.48,110.48 L 99.72,113.14 L 99.19,114.47 L 98.06,117.10 L 97.41,118.24 L 96.10,120.35 L 95.44,121.05 L 94.37,122.42 L 93.61,123.62 L 93.24,124.30 L 91.81,127.18 L 91.35,128.55 L 89.50,132.93 L 88.78,134.33 L 88.43,134.94 L 87.73,136.09 L 87.42,136.50 L 86.34,138.10 L 85.50,139.46 L 85.06,140.23 L 83.26,143.49 L 82.54,145.00 L 81.29,147.53 L 80.33,149.40 L 79.84,150.35 L 78.84,152.25 L 78.36,153.12 L 77.44,154.81 L 77.05,155.50 L 74.84,159.81 L 74.24,161.16 L 74.02,161.73 L 73.63,162.79 L 73.54,163.15 L 73.13,164.48 L 72.74,165.56 L 72.51,166.14 L 71.48,168.57 L 70.94,169.61 L 69.57,172.77 L 69.25,173.71 L 69.15,174.09 L 69.00,174.79 L 69.00,175.01 L 68.69,176.44 L 68.24,177.36 L 67.95,177.65 L 67.37,178.79 L 66.96,180.10 L 66.75,180.97 L 66.32,182.86 L 66.11,183.96 L 65.69,186.28 L 65.50,187.54 L 64.76,192.83 L 64.49,195.53 L 64.25,198.20 L 64.16,199.48 L 64.03,201.97 L 64.00,203.09 L 64.01,206.75 L 64.06,209.65 L 64.12,211.21 L 64.24,214.38 L 64.31,215.93 L 64.48,218.98 L 64.58,220.33 L 64.80,223.06 L 64.96,224.66 L 65.04,225.36 L 65.40,227.91 L 65.63,228.90 L 66.13,230.73 L 66.46,231.49 L 67.18,232.93 L 67.65,233.63 L 69.31,236.75 L 69.70,237.78 L 69.81,238.24 L 70.00,239.09 L 70.00,239.41 L 70.17,240.80 L 70.43,241.97 L 70.63,242.64 L 71.59,245.55 L 72.25,247.18 L 73.69,250.48 L 74.49,252.07 L 76.13,255.14 L 76.95,256.37 L 79.34,260.08 L 80.15,261.38 L 80.52,261.97 L 81.22,263.12 L 81.50,263.58 L 83.72,266.56 L 85.49,268.46 L 86.25,269.04 L 88.19,271.11 L 88.64,271.86 L 88.78,272.20 L 89.00,272.87 L 89.00,273.15 L 89.48,274.38 L 90.25,275.52 L 90.80,276.21 L 92.01,277.64 L 92.73,278.42 L 94.24,280.01 L 95.06,280.82 L 98.48,284.03 L 100.10,285.33 L 101.68,286.55 L 102.38,287.02 L 103.70,287.85 L 104.22,288.07 L 106.31,289.43 L 107.37,290.59 L 107.53,291.11 L 108.75,292.62 L 110.08,293.45 L 110.82,293.62 L 112.10,294.10 L 113.09,294.59 L 113.61,294.91 L 115.70,296.33 L 116.54,297.12 L 119.56,299.22 L 120.64,299.73 L 121.14,299.89 L 122.13,300.17 L 122.54,300.20 L 124.03,300.47 L 125.24,300.81 L 125.90,301.04 L 128.64,302.13 L 129.83,302.78 L 134.35,304.92 L 137.53,306.08 L 139.25,306.54 L 142.79,307.39 L 144.75,307.71 L 148.79,308.28 L 151.05,308.48 L 154.09,308.81 L 155.99,309.07 L 156.81,309.22 L 158.33,309.52 L 158.89,309.66 L 159.85,309.95 L 160.05,310.09 L 160.57,310.33 L 160.97,310.42 L 161.86,310.57 L 162.40,310.62 L 164.76,310.69 L 166.00,310.55 L 168.26,310.32 L 170.09,310.13 L 171.09,310.04 L 175.21,309.64 L 177.00,309.48 L 180.48,309.11 L 182.99,308.79 L 184.29,308.61 L 189.58,307.81 L 192.12,307.37 L 194.62,306.92 L 195.78,306.69 L 198.03,306.23 L 199.02,306.01 L 200.89,305.58 L 201.65,305.37 L 203.04,304.98 L 203.50,304.80 L 206.22,303.47 L 207.99,302.35 L 208.56,301.84 L 209.71,301.07 L 210.74,300.55 L 211.33,300.30 L 213.87,299.40 L 215.11,299.17 L 219.00,297.92 L 220.22,297.34 L 220.74,297.03 L 221.71,296.40 L 222.05,296.10 L 223.48,294.86 L 224.78,293.77 L 225.54,293.15 L 228.85,290.48 L 230.50,289.20 L 232.93,287.31 L 234.45,286.13 L 235.11,285.61 L 236.35,284.64 L 236.81,284.29 L 237.60,283.66 L 237.77,283.52 L 238.27,283.07 L 238.72,282.61 L 239.00,282.31 L 240.26,280.95 L 241.04,280.06 L 242.71,278.16 L 243.64,277.09 L 245.53,274.88 L 246.50,273.73 L 248.44,271.41 L 249.37,270.29 L 251.18,268.09 L 251.97,267.11 L 253.46,265.24 L 254.02,264.50 L 255.01,263.17 L 255.26,262.79 L 256.49,260.40 L 257.00,258.92 L 257.00,258.49 L 257.18,257.70 L 257.47,257.07 L 257.68,256.72 L 258.67,255.31 L 259.31,254.70 L 260.58,253.26 L 261.47,252.06 L 261.92,251.38 L 263.68,248.47 L 264.43,246.94 L 265.82,243.92 L 266.22,242.66 L 266.57,241.46 L 266.65,240.98 L 266.74,240.10 L 266.66,239.81 L 266.62,238.71 L 266.76,237.72 L 266.89,237.14 L 267.60,234.63 L 268.15,233.40 L 269.23,230.40 L 269.85,228.08 L 270.12,226.77 L 270.60,224.07 L 270.80,222.58 L 271.15,219.54 L 271.27,217.90 L 271.48,214.56 L 271.53,212.79 L 271.59,209.19 L 271.57,207.31 L 271.33,199.58 L 270.99,195.50 L 270.34,189.03 L 269.87,185.41 L 269.62,183.92 L 269.10,181.16 L 268.81,180.08 L 268.22,178.13 L 267.90,177.43 L 266.56,173.99 L 266.24,172.94 L 266.15,172.51 L 266.00,171.70 L 266.00,171.43 L 265.83,170.41 L 265.56,169.53 L 265.36,169.04 L 264.44,166.96 L 263.85,166.00 L 262.91,164.26 L 262.27,162.86 L 261.96,162.10 L 260.77,158.98 L 260.42,157.65 L 259.10,153.74 L 258.61,152.62 L 258.38,152.17 L 257.92,151.38 L 257.73,151.15 L 256.97,150.11 L 256.30,149.12 L 255.92,148.52 L 254.29,145.88 L 253.51,144.50 L 250.68,140.00 L 249.65,138.53 L 249.17,137.89 L 248.23,136.67 L 247.84,136.22 L 245.83,133.54 L 245.37,132.76 L 245.22,132.45 L 245.00,131.88 L 245.00,131.72 L 244.75,130.73 L 244.37,129.65 L 244.09,128.95 L 243.48,127.46 L 243.11,126.62 L 242.33,124.89 L 241.90,124.00 L 240.35,120.61 L 239.09,117.76 L 238.40,116.18 L 235.55,109.52 L 234.31,106.50 L 233.06,103.41 L 232.37,101.61 L 232.08,100.82 L 231.54,99.32 L 231.32,98.66 L 230.93,97.39 L 230.79,96.84 L 230.33,94.78 L 230.27,93.91 L 230.25,92.24 L 230.36,91.40 L 230.49,87.33 L 230.19,84.70 L 229.90,83.61 L 229.59,82.57 L 229.41,82.14 L 229.03,81.33 L 228.82,81.04 L 228.38,80.54 L 228.15,80.43 L 227.68,80.29 L 227.44,80.39 L 226.14,80.41 L 225.30,80.05 L 225.02,79.72 L 223.35,77.65 L 222.40,76.45 L 222.00,75.93 L 220.61,74.05 L 220.17,73.34 L 219.43,72.06 L 219.25,71.55 L 219.00,70.59 L 219.00,70.14 L 218.78,69.08 L 218.44,68.20 L 218.18,67.71 L 216.99,65.69 L 216.22,64.78 L 213.86,61.68 L 213.14,60.60 L 212.84,60.12 L 212.28,59.19 L 212.09,58.82 L 210.29,56.57 L 208.65,55.27 L 207.87,54.94 L 205.84,53.85 L 205.37,53.48 L 205.23,53.32 L 205.00,53.01 L 205.00,52.89 L 204.39,51.96 L 203.44,51.09 L 202.75,50.57 L 201.23,49.47 L 200.32,48.87 L 198.41,47.64 L 197.36,47.01 L 193.01,44.51 L 190.90,43.46 L 188.83,42.47 L 187.90,42.07 L 186.12,41.36 L 185.40,41.14 L 181.85,40.27 L 179.27,39.80 L 177.90,39.63 L 172.29,39.11 L 169.42,39.09 M 223.02,190.85 L 224.33,191.07 L 224.85,191.35 L 225.85,192.03 L 226.47,192.56 L 228.26,194.24 L 228.67,194.70 L 228.80,194.87 L 229.00,195.17 L 229.00,195.24 L 228.77,195.35 L 228.40,195.43 L 228.11,195.48 L 226.71,195.65 L 225.70,195.74 L 223.46,195.93 L 222.12,196.01 L 219.30,196.18 L 217.75,196.24 L 214.56,196.41 L 212.65,196.54 L 211.78,196.62 L 208.51,196.97 L 207.04,197.23 L 204.17,197.82 L 202.71,198.23 L 199.72,199.14 L 198.00,199.75 L 195.67,200.58 L 194.56,200.98 L 192.41,201.76 L 191.48,202.09 L 189.74,202.73 L 189.10,202.97 L 187.99,203.39 L 187.75,203.49 L 186.61,203.88 L 186.12,203.95 L 186.00,203.91 L 185.85,203.77 L 185.89,203.63 L 186.04,203.30 L 186.22,203.08 L 186.65,202.61 L 186.96,202.32 L 187.65,201.73 L 188.08,201.40 L 190.01,200.00 L 191.25,199.25 L 196.43,196.43 L 199.82,194.96 L 201.63,194.37 L 205.36,193.29 L 207.50,192.85 L 209.70,192.42 L 210.90,192.22 L 213.37,191.83 L 214.72,191.64 L 217.69,191.24 L 219.32,191.04 L 219.98,190.97 L 221.22,190.86 L 221.72,190.84 L 222.65,190.82 M 111.81,189.19 L 112.62,189.45 L 113.15,189.70 L 114.66,190.23 L 116.15,190.63 L 117.06,190.83 L 121.05,191.62 L 123.16,191.91 L 127.38,192.66 L 130.28,193.34 L 131.74,193.76 L 137.54,195.57 L 140.11,196.62 L 142.61,197.68 L 143.72,198.22 L 145.81,199.31 L 146.66,199.84 L 148.21,200.88 L 148.74,201.37 L 149.62,202.33 L 149.76,202.75 L 149.93,203.45 L 149.84,203.63 L 149.53,203.87 L 149.13,203.81 L 148.14,203.56 L 147.34,203.24 L 146.49,202.88 L 145.97,202.65 L 144.88,202.17 L 144.23,201.87 L 137.74,199.41 L 132.96,198.07 L 130.44,197.56 L 125.31,196.67 L 122.69,196.40 L 117.43,196.00 L 114.84,196.00 L 110.82,196.07 L 108.57,196.19 L 107.71,196.28 L 106.17,196.47 L 105.71,196.59 L 105.00,196.85 L 105.00,197.00 L 104.71,197.71 L 104.27,198.00 L 104.00,198.00 L 103.29,197.56 L 103.00,196.91 L 103.00,196.50 L 103.30,195.44 L 103.74,195.00 L 104.01,195.00 L 104.64,194.75 L 105.22,194.34 L 105.58,194.05 L 107.12,192.66 L 107.91,191.78 L 109.51,190.10 L 110.34,189.43 L 110.70,189.28 L 111.42,189.12 M 230.89,196.13 L 231.15,196.21 L 232.20,197.16 L 232.73,198.23 L 232.82,198.83 L 232.86,199.99 L 232.69,200.38 L 232.25,201.00 L 231.90,201.00 L 231.22,200.81 L 231.12,200.54 L 231.30,200.37 L 231.43,199.34 L 231.16,198.30 L 230.87,197.75 L 230.41,196.81 L 230.28,196.39 L 230.31,196.27 L 230.41,196.10 L 230.55,196.09 M 170.99,189.07 L 171.70,189.27 L 171.80,189.55 L 171.83,190.23 L 171.62,190.86 L 171.38,191.53 L 171.21,191.95 L 170.83,192.86 L 170.60,193.41 L 170.12,194.52 L 169.90,194.98 L 169.47,195.81 L 169.27,196.13 L 168.87,196.69 L 168.69,196.86 L 168.33,197.15 L 168.15,197.19 L 167.81,197.20 L 167.64,197.11 L 167.31,196.85 L 167.14,196.62 L 166.48,195.44 L 166.12,194.45 L 165.40,191.82 L 165.36,190.56 L 165.59,190.14 L 166.21,189.44 L 166.78,189.26 L 168.11,189.00 L 169.06,189.00 M 134.81,166.38 L 138.58,166.88 L 140.36,167.29 L 143.80,168.21 L 145.26,168.80 L 146.67,169.41 L 147.28,169.74 L 148.44,170.41 L 148.91,170.77 L 151.03,172.40 L 152.27,173.38 L 152.82,173.83 L 154.81,175.49 L 155.58,176.21 L 157.00,177.60 L 157.57,178.26 L 158.65,179.60 L 159.15,180.33 L 160.21,181.94 L 160.37,182.24 L 160.38,182.31 L 160.37,182.40 L 160.30,182.37 L 160.10,182.26 L 159.92,182.12 L 159.53,181.79 L 159.25,181.55 L 158.64,181.00 L 158.25,180.64 L 157.42,179.87 L 156.91,179.40 L 150.86,174.60 L 146.65,172.05 L 144.42,171.09 L 139.90,169.39 L 137.50,168.84 L 132.61,167.96 L 130.00,167.81 L 124.50,167.50 L 124.20,172.22 L 124.09,174.85 L 124.18,175.98 L 124.35,176.34 L 124.77,176.92 L 125.15,177.10 L 126.04,177.41 L 126.70,177.56 L 133.83,179.63 L 138.66,181.46 L 140.80,182.45 L 142.88,183.44 L 143.80,183.93 L 145.54,184.91 L 146.24,185.37 L 147.52,186.26 L 147.95,186.66 L 148.66,187.43 L 148.77,187.75 L 148.94,188.45 L 148.85,188.63 L 148.54,188.87 L 148.14,188.81 L 147.19,188.57 L 146.41,188.26 L 145.58,187.92 L 145.08,187.70 L 144.02,187.23 L 143.39,186.94 L 138.34,184.97 L 134.65,183.85 L 132.77,183.41 L 129.01,182.62 L 127.23,182.37 L 123.78,182.00 L 122.29,182.00 L 120.24,181.96 L 119.03,181.90 L 118.55,181.86 L 117.69,181.76 L 117.42,181.70 L 117.00,181.58 L 117.00,181.51 L 117.18,181.11 L 117.46,180.68 L 117.66,180.40 L 118.63,179.15 L 119.25,178.44 L 120.22,177.05 L 120.79,175.93 L 121.03,175.30 L 121.85,172.62 L 122.00,171.18 L 122.50,166.50 L 129.19,166.21 M 212.32,177.04 L 212.58,177.19 L 213.78,178.00 L 214.44,178.56 L 215.73,179.72 L 216.21,180.26 L 216.65,180.78 L 216.78,181.00 L 217.00,181.41 L 217.00,181.55 L 216.66,181.72 L 216.13,181.83 L 215.75,181.87 L 213.90,182.00 L 212.73,182.00 L 210.49,182.16 L 208.61,182.41 L 207.55,182.60 L 203.13,183.48 L 201.11,184.04 L 196.92,185.27 L 195.07,185.91 L 193.29,186.54 L 192.58,186.82 L 191.27,187.36 L 190.88,187.56 L 188.97,188.32 L 188.21,188.36 L 188.10,188.18 L 188.07,187.69 L 188.35,187.27 L 189.09,186.32 L 189.78,185.70 L 191.13,184.69 L 192.32,183.96 L 193.02,183.58 L 196.09,182.01 L 197.81,181.27 L 201.30,179.86 L 202.91,179.32 L 204.49,178.83 L 205.19,178.65 L 206.54,178.33 L 207.09,178.26 L 210.03,177.65 L 210.78,177.40 L 211.04,177.28 L 211.48,177.04 L 211.54,176.93 L 211.91,176.88 Z" fill="rgba(50,86,70,1)"/>
<path d="M 172.29,39.11 L 177.90,39.63 L 179.27,39.80 L 181.85,40.27 L 185.40,41.14 L 186.12,41.36 L 187.90,42.07 L 188.83,42.47 L 190.90,43.46 L 193.01,44.51 L 197.36,47.01 L 198.41,47.64 L 200.32,48.87 L 201.23,49.47 L 202.75,50.57 L 203.44,51.09 L 204.39,51.96 L 205.00,52.89 L 205.00,53.01 L 205.23,53.32 L 205.37,53.48 L 205.84,53.85 L 207.87,54.94 L 208.65,55.27 L 210.29,56.57 L 212.09,58.82 L 212.28,59.19 L 212.84,60.12 L 213.14,60.60 L 213.86,61.68 L 216.22,64.78 L 216.99,65.69 L 218.18,67.71 L 218.44,68.20 L 218.78,69.08 L 219.00,70.14 L 219.00,70.59 L 219.25,71.55 L 219.43,72.06 L 220.17,73.34 L 220.61,74.05 L 222.00,75.93 L 222.40,76.45 L 223.35,77.65 L 225.02,79.72 L 225.30,80.05 L 226.14,80.41 L 227.44,80.39 L 227.68,80.29 L 228.15,80.43 L 228.38,80.54 L 228.82,81.04 L 229.03,81.33 L 229.41,82.14 L 229.59,82.57 L 229.90,83.61 L 230.19,84.70 L 230.49,87.33 L 230.36,91.40 L 230.25,92.24 L 230.27,93.91 L 230.33,94.78 L 230.79,96.84 L 230.93,97.39 L 231.32,98.66 L 231.54,99.32 L 232.08,100.82 L 232.37,101.61 L 233.06,103.41 L 234.31,106.50 L 235.55,109.52 L 238.40,116.18 L 239.09,117.76 L 240.35,120.61 L 241.90,124.00 L 242.33,124.89 L 243.11,126.62 L 243.48,127.46 L 244.09,128.95 L 244.37,129.65 L 244.75,130.73 L 245.00,131.72 L 245.00,131.88 L 245.22,132.45 L 245.37,132.76 L 245.83,133.54 L 247.84,136.22 L 248.23,136.67 L 249.17,137.89 L 249.65,138.53 L 250.68,140.00 L 253.51,144.50 L 254.29,145.88 L 255.92,148.52 L 256.30,149.12 L 256.97,150.11 L 257.73,151.15 L 257.92,151.38 L 258.38,152.17 L 258.61,152.62 L 259.10,153.74 L 260.42,157.65 L 260.77,158.98 L 261.96,162.10 L 262.27,162.86 L 262.91,164.26 L 263.85,166.00 L 264.44,166.96 L 265.36,169.04 L 265.56,169.53 L 265.83,170.41 L 266.00,171.43 L 266.00,171.70 L 266.15,172.51 L 266.24,172.94 L 266.56,173.99 L 267.90,177.43 L 268.22,178.13 L 268.81,180.08 L 269.10,181.16 L 269.62,183.92 L 269.87,185.41 L 270.34,189.03 L 270.99,195.50 L 271.33,199.58 L 271.57,207.31 L 271.59,209.19 L 271.53,212.79 L 271.48,214.56 L 271.27,217.90 L 271.15,219.54 L 270.80,222.58 L 270.60,224.07 L 270.12,226.77 L 269.85,228.08 L 269.23,230.40 L 268.15,233.40 L 267.60,234.63 L 266.89,237.14 L 266.76,237.72 L 266.62,238.71 L 266.66,239.81 L 266.74,240.10 L 266.65,240.98 L 266.57,241.46 L 266.22,242.66 L 265.82,243.92 L 264.43,246.94 L 263.68,248.47 L 261.92,251.38 L 261.47,252.06 L 260.58,253.26 L 259.31,254.70 L 258.67,255.31 L 257.68,256.72 L 257.47,257.07 L 257.18,257.70 L 257.00,258.49 L 257.00,258.92 L 256.49,260.40 L 255.26,262.79 L 255.01,263.17 L 254.02,264.50 L 253.46,265.24 L 251.97,267.11 L 251.18,268.09 L 249.37,270.29 L 248.44,271.41 L 246.50,273.73 L 245.53,274.88 L 243.64,277.09 L 242.71,278.16 L 241.04,280.06 L 240.26,280.95 L 239.00,282.31 L 238.72,282.61 L 238.27,283.07 L 237.77,283.52 L 237.60,283.66 L 236.81,284.29 L 236.35,284.64 L 235.11,285.61 L 234.45,286.13 L 232.93,287.31 L 230.50,289.20 L 228.85,290.48 L 225.54,293.15 L 224.78,293.77 L 223.48,294.86 L 222.05,296.10 L 221.71,296.40 L 220.74,297.03 L 220.22,297.34 L 219.00,297.92 L 215.11,299.17 L 213.87,299.40 L 211.33,300.30 L 210.74,300.55 L 209.71,301.07 L 208.56,301.84 L 207.99,302.35 L 206.22,303.47 L 203.50,304.80 L 203.04,304.98 L 201.65,305.37 L 200.89,305.58 L 199.02,306.01 L 198.03,306.23 L 195.78,306.69 L 194.62,306.92 L 192.12,307.37 L 189.58,307.81 L 184.29,308.61 L 182.99,308.79 L 180.48,309.11 L 177.00,309.48 L 175.21,309.64 L 171.09,310.04 L 170.09,310.13 L 168.26,310.32 L 166.00,310.55 L 164.76,310.69 L 162.40,310.62 L 161.86,310.57 L 160.97,310.42 L 160.57,310.33 L 160.05,310.09 L 159.85,309.95 L 158.89,309.66 L 158.33,309.52 L 156.81,309.22 L 155.99,309.07 L 154.09,308.81 L 151.05,308.48 L 148.79,308.28 L 144.75,307.71 L 142.79,307.39 L 139.25,306.54 L 137.53,306.08 L 134.35,304.92 L 129.83,302.78 L 128.64,302.13 L 125.90,301.04 L 125.24,300.81 L 124.03,300.47 L 122.54,300.20 L 122.13,300.17 L 121.14,299.89 L 120.64,299.73 L 119.56,299.22 L 116.54,297.12 L 115.70,296.33 L 113.61,294.91 L 113.09,294.59 L 112.10,294.10 L 110.82,293.62 L 110.08,293.45 L 108.75,292.62 L 107.53,291.11 L 107.37,290.59 L 106.31,289.43 L 104.22,288.07 L 103.70,287.85 L 102.38,287.02 L 101.68,286.55 L 100.10,285.33 L 98.48,284.03 L 95.06,280.82 L 94.24,280.01 L 92.73,278.42 L 92.01,277.64 L 90.80,276.21 L 90.25,275.52 L 89.48,274.38 L 89.00,273.15 L 89.00,272.87 L 88.78,272.20 L 88.64,271.86 L 88.19,271.11 L 86.25,269.04 L 85.49,268.46 L 83.72,266.56 L 81.50,263.58 L 81.22,263.12 L 80.52,261.97 L 80.15,261.38 L 79.34,260.08 L 76.95,256.37 L 76.13,255.14 L 74.49,252.07 L 73.69,250.48 L 72.25,247.18 L 71.59,245.55 L 70.63,242.64 L 70.43,241.97 L 70.17,240.80 L 70.00,239.41 L 70.00,239.09 L 69.81,238.24 L 69.70,237.78 L 69.31,236.75 L 67.65,233.63 L 67.18,232.93 L 66.46,231.49 L 66.13,230.73 L 65.63,228.90 L 65.40,227.91 L 65.04,225.36 L 64.96,224.66 L 64.80,223.06 L 64.58,220.33 L 64.48,218.98 L 64.31,215.93 L 64.24,214.38 L 64.12,211.21 L 64.06,209.65 L 64.01,206.75 L 64.00,203.09 L 64.03,201.97 L 64.16,199.48 L 64.25,198.20 L 64.49,195.53 L 64.76,192.83 L 65.50,187.54 L 65.69,186.28 L 66.11,183.96 L 66.32,182.86 L 66.75,180.97 L 66.96,180.10 L 67.37,178.79 L 67.95,177.65 L 68.24,177.36 L 68.69,176.44 L 69.00,175.01 L 69.00,174.79 L 69.15,174.09 L 69.25,173.71 L 69.57,172.77 L 70.94,169.61 L 71.48,168.57 L 72.51,166.14 L 72.74,165.56 L 73.13,164.48 L 73.54,163.15 L 73.63,162.79 L 74.02,161.73 L 74.24,161.16 L 74.84,159.81 L 77.05,155.50 L 77.44,154.81 L 78.36,153.12 L 78.84,152.25 L 79.84,150.35 L 80.33,149.40 L 81.29,147.53 L 82.54,145.00 L 83.26,143.49 L 85.06,140.23 L 85.50,139.46 L 86.34,138.10 L 87.42,136.50 L 87.73,136.09 L 88.43,134.94 L 88.78,134.33 L 89.50,132.93 L 91.35,128.55 L 91.81,127.18 L 93.24,124.30 L 93.61,123.62 L 94.37,122.42 L 95.44,121.05 L 96.10,120.35 L 97.41,118.24 L 98.06,117.10 L 99.19,114.47 L 99.72,113.14 L 100.48,110.48 L 100.99,107.00 L 100.99,106.66 L 101.15,105.77 L 101.26,105.31 L 101.59,104.27 L 103.00,101.23 L 103.55,100.33 L 104.41,98.40 L 104.59,97.94 L 104.84,97.13 L 105.00,96.19 L 105.00,95.94 L 105.15,95.21 L 105.25,94.81 L 105.56,93.85 L 106.89,90.71 L 107.41,89.69 L 108.43,87.29 L 108.66,86.70 L 109.05,85.61 L 109.47,84.25 L 109.65,83.50 L 110.49,81.72 L 112.00,79.50 L 112.25,79.22 L 112.89,78.29 L 113.22,77.77 L 113.94,76.47 L 116.00,72.00 L 116.59,70.49 L 118.04,67.53 L 118.40,66.85 L 119.07,65.71 L 119.93,64.50 L 120.42,63.95 L 121.70,62.21 L 123.46,59.50 L 123.74,59.01 L 124.93,57.67 L 125.60,56.95 L 127.41,55.28 L 128.37,54.41 L 130.59,52.57 L 131.72,51.64 L 134.12,49.79 L 135.32,48.88 L 137.68,47.19 L 138.84,46.38 L 140.95,45.03 L 141.95,44.40 L 143.58,43.54 L 143.95,43.36 L 144.56,43.13 L 145.26,42.99 L 145.57,42.99 L 146.64,42.82 L 147.24,42.72 L 148.75,42.38 L 154.00,40.94 L 155.01,40.62 L 157.31,40.11 L 158.50,39.87 L 161.08,39.52 L 163.71,39.22 L 169.42,39.09 M 166.26,42.05 L 161.07,42.46 L 158.51,42.98 L 153.40,44.23 L 150.90,45.16 L 145.94,47.21 L 143.54,48.55 L 138.78,51.41 L 136.50,53.14 L 132.01,56.79 L 129.89,58.91 L 127.68,61.16 L 126.38,62.53 L 125.80,63.19 L 123.66,65.73 L 122.75,67.04 L 120.98,69.73 L 120.09,71.35 L 119.20,73.01 L 118.72,73.95 L 117.76,75.90 L 117.22,77.00 L 116.10,79.41 L 115.29,81.23 L 114.85,82.22 L 113.06,86.41 L 112.13,88.67 L 110.27,93.27 L 109.39,95.54 L 107.68,100.01 L 106.97,102.00 L 102.92,112.50 L 99.96,119.40 L 98.26,122.99 L 96.51,126.62 L 95.56,128.51 L 93.62,132.34 L 92.56,134.36 L 90.38,138.47 L 89.19,140.65 L 86.74,145.11 L 85.40,147.50 L 81.14,155.38 L 78.67,160.28 L 77.60,162.60 L 75.58,167.17 L 74.73,169.36 L 73.12,173.70 L 72.46,175.84 L 71.22,180.08 L 70.73,182.22 L 69.83,186.49 L 69.49,188.68 L 68.89,193.11 L 68.69,195.43 L 68.34,200.14 L 68.26,202.64 L 68.12,208.15 L 68.11,211.49 L 68.14,213.03 L 68.24,216.03 L 68.34,217.43 L 68.57,220.19 L 68.73,221.52 L 69.54,226.71 L 70.18,229.33 L 70.87,231.98 L 71.28,233.37 L 72.14,236.19 L 72.65,237.69 L 75.15,244.42 L 77.04,248.76 L 78.08,250.86 L 80.24,255.02 L 81.42,257.03 L 83.85,260.99 L 85.16,262.90 L 87.84,266.66 L 89.27,268.46 L 92.20,272.01 L 93.76,273.70 L 96.92,277.03 L 98.59,278.61 L 101.99,281.71 L 103.77,283.18 L 107.38,286.04 L 109.27,287.39 L 113.09,290.02 L 115.08,291.24 L 119.10,293.61 L 121.19,294.70 L 125.40,296.82 L 127.58,297.78 L 131.97,299.64 L 134.23,300.46 L 138.80,302.04 L 141.14,302.73 L 145.87,304.03 L 148.29,304.57 L 153.17,305.58 L 155.66,305.97 L 159.59,306.48 L 161.70,306.60 L 166.00,306.76 L 168.26,306.71 L 172.82,306.52 L 175.17,306.31 L 179.89,305.80 L 182.27,305.43 L 187.03,304.61 L 189.39,304.10 L 194.09,303.00 L 196.38,302.34 L 200.90,300.97 L 203.05,300.19 L 207.29,298.56 L 209.26,297.66 L 218.40,292.86 L 224.24,289.18 L 227.01,287.12 L 232.47,282.85 L 235.03,280.52 L 240.04,275.71 L 242.37,273.13 L 246.90,267.85 L 248.96,265.06 L 252.95,259.36 L 254.72,256.37 L 258.12,250.30 L 259.58,247.15 L 262.34,240.78 L 263.46,237.50 L 265.15,231.71 L 266.10,227.57 L 266.47,225.40 L 267.17,221.01 L 267.42,218.74 L 267.85,214.18 L 267.97,211.88 L 268.14,207.26 L 268.13,204.97 L 268.04,200.40 L 267.89,198.17 L 267.52,193.74 L 267.23,191.63 L 266.59,187.46 L 266.16,185.50 L 264.87,180.03 L 263.97,176.65 L 263.47,175.02 L 262.41,171.79 L 261.79,170.15 L 260.48,166.83 L 259.69,165.07 L 258.03,161.45 L 257.03,159.45 L 254.91,155.30 L 253.65,152.95 L 252.35,150.56 L 251.64,149.27 L 250.19,146.65 L 249.40,145.25 L 247.78,142.38 L 246.91,140.84 L 245.11,137.69 L 244.14,136.00 L 241.62,131.51 L 240.09,128.69 L 239.38,127.32 L 236.69,121.91 L 235.44,119.04 L 234.19,116.13 L 233.57,114.57 L 232.30,111.37 L 231.64,109.62 L 230.30,106.00 L 229.59,103.99 L 228.12,99.83 L 227.31,97.50 L 222.63,85.31 L 220.97,81.54 L 220.13,79.76 L 218.42,76.27 L 217.56,74.64 L 215.83,71.47 L 214.96,70.02 L 213.22,67.22 L 212.36,65.96 L 210.63,63.55 L 209.78,62.51 L 208.09,60.54 L 207.26,59.73 L 204.57,57.13 L 202.99,55.64 L 202.27,55.00 L 199.59,52.68 L 198.34,51.78 L 195.84,50.09 L 194.42,49.31 L 192.96,48.53 L 192.15,48.12 L 190.45,47.30 L 189.49,46.85 L 181.84,43.96 L 176.66,42.69 L 174.06,42.37 L 168.85,41.94 M 186.00,203.91 L 186.12,203.95 L 186.12,203.95 L 186.00,203.91 L 185.97,203.88 M 186.61,203.88 L 186.25,203.93 L 186.61,203.88 M 185.85,203.77 L 185.85,203.77 L 185.86,203.73 M 186.04,203.30 L 186.04,203.30 L 186.20,203.10 M 186.22,203.08 L 186.22,203.08 L 186.65,202.61 M 191.25,199.25 L 190.01,200.00 L 188.08,201.40 L 187.65,201.73 L 186.96,202.32 L 186.65,202.61 L 186.66,202.60 L 186.97,202.32 L 187.66,201.72 L 188.08,201.39 L 190.02,199.98 L 191.27,199.23 L 193.95,197.78 M 139.93,196.54 L 142.49,197.61 L 143.61,198.15 L 145.75,199.25 L 146.61,199.78 L 148.19,200.84 L 148.72,201.34 L 149.61,202.31 L 149.62,202.33 L 148.74,201.37 L 148.21,200.88 L 146.66,199.84 L 145.81,199.31 L 143.72,198.22 L 142.61,197.68 L 140.11,196.62 L 139.40,196.33 M 231.83,200.98 L 231.81,201.00 L 231.70,201.00 L 231.16,200.81 L 231.12,200.54 L 231.22,200.81 M 123.75,162.01 L 129.86,162.36 L 134.04,162.92 L 136.09,163.34 L 140.15,164.28 L 142.05,164.87 L 145.74,166.14 L 147.36,166.88 L 152.78,169.94 L 156.38,172.49 L 158.04,173.90 L 161.21,176.79 L 162.49,178.23 L 163.71,179.67 L 164.22,180.37 L 165.17,181.75 L 165.52,182.41 L 167.10,184.94 L 167.56,185.53 L 167.75,185.72 L 168.08,186.00 L 168.18,186.00 L 168.59,185.72 L 168.97,185.29 L 169.18,184.97 L 170.12,183.45 L 170.58,182.48 L 171.71,180.57 L 172.72,179.20 L 173.33,178.49 L 176.04,175.59 L 177.68,174.15 L 181.10,171.33 L 182.92,170.09 L 186.59,167.76 L 188.35,166.93 L 193.88,164.81 L 198.04,163.64 L 200.18,163.21 L 204.48,162.47 L 206.50,162.29 L 210.44,162.07 L 212.10,162.19 L 216.50,162.50 L 217.50,176.50 L 227.91,177.10 L 228.21,183.80 L 228.31,185.95 L 228.38,187.12 L 228.43,187.59 L 228.64,189.17 L 228.84,189.62 L 229.30,190.34 L 229.69,190.50 L 230.58,190.74 L 231.25,190.82 L 233.19,191.39 L 233.64,191.67 L 233.78,191.83 L 233.99,192.15 L 233.99,192.32 L 233.74,195.17 L 233.40,197.12 L 233.17,197.98 L 232.83,199.13 L 232.82,198.83 L 232.73,198.23 L 232.20,197.16 L 231.15,196.21 L 230.89,196.13 L 230.55,196.09 L 230.41,196.10 L 230.31,196.27 L 230.28,196.39 L 230.41,196.81 L 230.87,197.75 L 230.99,197.98 L 230.87,197.75 L 229.99,196.67 L 229.56,196.43 L 229.27,196.34 L 228.64,196.18 L 228.21,196.13 L 227.29,196.05 L 226.69,196.03 L 225.40,196.02 L 224.58,196.03 L 222.84,196.07 L 221.78,196.10 L 219.51,196.19 L 218.15,196.24 L 210.46,196.84 L 205.79,197.55 L 203.46,198.10 L 200.77,198.82 L 202.71,198.23 L 204.17,197.82 L 207.04,197.23 L 208.51,196.97 L 211.78,196.62 L 212.65,196.54 L 214.56,196.41 L 217.75,196.24 L 219.30,196.18 L 222.12,196.01 L 223.46,195.93 L 225.70,195.74 L 226.71,195.65 L 228.11,195.48 L 228.40,195.43 L 228.77,195.35 L 229.00,195.24 L 229.00,195.17 L 228.80,194.87 L 228.67,194.70 L 228.26,194.24 L 226.47,192.56 L 225.85,192.03 L 224.85,191.35 L 224.33,191.07 L 223.02,190.85 L 222.65,190.82 L 221.72,190.84 L 221.22,190.86 L 219.98,190.97 L 219.66,191.00 L 223.50,190.50 L 223.81,186.25 L 224.11,182.00 L 216.29,182.00 L 209.81,182.45 L 205.12,183.15 L 202.80,183.66 L 200.50,184.22 L 201.11,184.04 L 203.13,183.48 L 207.55,182.60 L 208.61,182.41 L 210.49,182.16 L 212.73,182.00 L 213.90,182.00 L 215.75,181.87 L 216.13,181.83 L 216.66,181.72 L 217.00,181.55 L 217.00,181.41 L 216.78,181.00 L 216.65,180.78 L 216.21,180.26 L 215.73,179.72 L 214.44,178.56 L 213.78,178.00 L 212.58,177.19 L 212.32,177.04 L 211.91,176.88 L 211.54,176.93 L 211.48,177.04 L 211.04,177.28 L 210.78,177.40 L 210.03,177.65 L 207.09,178.26 L 207.05,178.27 L 210.09,177.58 L 211.49,176.87 L 211.93,176.35 L 212.64,175.17 L 212.77,174.34 L 212.91,172.52 L 212.81,171.32 L 212.50,167.50 L 207.54,167.19 L 204.76,167.20 L 202.86,167.42 L 201.81,167.65 L 199.62,168.20 L 198.34,168.62 L 195.65,169.54 L 194.04,170.16 L 190.27,171.77 L 187.93,172.95 L 186.84,173.60 L 184.72,174.93 L 183.73,175.66 L 181.81,177.16 L 180.91,177.98 L 177.53,181.43 L 176.07,183.47 L 174.66,185.55 L 174.00,186.68 L 172.72,188.99 L 172.12,190.24 L 170.83,192.87 L 170.83,192.87 L 170.83,192.86 L 171.21,191.95 L 171.38,191.53 L 171.62,190.86 L 171.83,190.23 L 171.80,189.55 L 171.70,189.27 L 170.99,189.07 L 169.06,189.00 L 168.11,189.00 L 166.78,189.26 L 166.21,189.44 L 165.59,190.14 L 165.36,190.56 L 165.40,191.82 L 166.06,194.23 L 166.00,194.11 L 165.32,192.63 L 164.98,191.80 L 162.48,186.80 L 160.49,183.71 L 159.33,182.29 L 156.93,179.55 L 155.89,178.60 L 156.91,179.40 L 157.42,179.87 L 158.25,180.64 L 158.64,181.00 L 159.25,181.55 L 159.53,181.79 L 159.92,182.12 L 160.10,182.26 L 160.30,182.37 L 160.37,182.40 L 160.38,182.31 L 160.37,182.24 L 160.21,181.94 L 159.15,180.33 L 158.65,179.60 L 157.57,178.26 L 157.00,177.60 L 155.58,176.21 L 154.81,175.49 L 152.82,173.83 L 152.27,173.38 L 151.03,172.40 L 148.91,170.77 L 148.44,170.41 L 147.28,169.74 L 146.67,169.41 L 145.26,168.80 L 143.80,168.21 L 140.36,167.29 L 138.58,166.88 L 134.81,166.38 L 129.19,166.21 L 122.50,166.50 L 122.00,171.18 L 121.85,172.62 L 121.03,175.30 L 120.79,175.93 L 120.22,177.05 L 119.25,178.44 L 118.63,179.15 L 117.66,180.40 L 117.46,180.68 L 117.18,181.11 L 117.00,181.51 L 117.00,181.58 L 117.42,181.70 L 117.69,181.76 L 118.55,181.86 L 119.03,181.90 L 120.24,181.96 L 122.29,182.00 L 123.78,182.00 L 127.23,182.37 L 129.01,182.62 L 132.77,183.41 L 134.65,183.85 L 135.63,184.15 L 134.39,183.83 L 130.77,183.03 L 128.87,182.78 L 124.97,182.36 L 122.69,182.24 L 112.87,181.73 L 113.19,186.10 L 113.45,189.81 L 113.15,189.70 L 112.62,189.45 L 111.81,189.19 L 111.42,189.12 L 110.70,189.28 L 110.34,189.43 L 109.51,190.10 L 107.91,191.78 L 107.12,192.66 L 105.58,194.05 L 105.22,194.34 L 104.64,194.75 L 104.01,195.00 L 103.74,195.00 L 103.30,195.44 L 103.00,196.50 L 103.00,196.87 L 102.53,196.00 L 102.34,195.35 L 102.02,193.98 L 102.02,193.25 L 102.13,192.12 L 102.36,191.60 L 102.58,191.44 L 103.10,191.16 L 103.50,191.09 L 104.39,191.00 L 108.00,191.00 L 108.00,177.00 L 119.00,177.00 L 119.00,162.00 M 168.30,197.32 L 168.20,197.38 L 167.90,197.20 L 168.15,197.19 L 168.33,197.15 L 168.51,197.00 M 105.00,196.91 L 105.00,196.85 L 105.43,196.69 M 106.06,196.50 L 106.17,196.47 L 106.54,196.42 M 114.10,196.01 L 114.84,196.00 L 114.92,196.00 M 134.28,194.52 L 135.71,195.00 L 132.90,194.12 M 207.65,192.82 L 207.68,192.81 L 207.71,192.81 M 211.03,192.20 L 212.16,191.99 L 213.26,191.85 M 122.10,191.69 L 123.02,191.89 L 121.05,191.62 L 119.73,191.36 M 148.50,188.87 L 148.47,188.87 L 148.37,188.85 M 148.93,188.53 L 148.87,188.78 L 148.75,188.83 L 148.55,188.86 L 148.85,188.63 L 148.92,188.48 M 148.71,187.57 L 148.82,187.91 L 148.86,188.15 L 148.77,187.75 L 148.71,187.57 M 138.34,184.97 L 139.27,185.34 L 137.08,184.59 M 138.77,181.50 L 140.90,182.49 L 141.35,182.71 L 140.80,182.45 L 138.66,181.46 L 133.83,179.63 L 126.70,177.56 L 133.94,179.66 M 205.19,178.65 L 204.49,178.83 L 202.91,179.32 L 201.30,179.86 L 197.81,181.27 L 197.26,181.51 L 197.80,181.28 L 201.28,179.86 L 202.89,179.33 L 204.46,178.83 L 205.17,178.65 L 206.51,178.34 L 206.54,178.33 M 150.86,174.60 L 151.04,174.74 L 149.97,174.06 M 144.42,171.09 L 146.65,172.05 L 147.70,172.69 L 146.55,172.12 L 143.71,170.82 M 139.90,169.39 L 142.12,170.23 L 141.37,169.97 L 137.85,168.92 M 132.61,167.96 L 135.16,168.42 L 131.99,167.92 M 132.98,198.07 L 130.46,197.57 L 128.55,197.23 L 130.44,197.56 L 132.96,198.07 L 137.74,199.41 L 144.23,201.87 L 137.75,199.41 M 231.16,198.30 L 231.08,198.15 L 231.16,198.30 L 231.43,199.34 L 231.30,200.37 L 231.43,199.34 Z" fill="rgba(53,92,62,1)"/>
<path d="M 103.50,191.09 L 103.10,191.16 L 102.58,191.44 L 102.36,191.60 L 102.13,192.12 L 102.02,193.25 L 102.02,193.98 L 102.34,195.35 L 102.53,196.00 L 103.07,197.01 L 103.36,197.44 L 103.94,197.79 L 104.08,197.82 L 104.34,197.71 L 104.66,197.25 L 104.75,197.03 L 105.45,196.68 L 105.89,196.53 L 107.35,196.30 L 108.18,196.19 L 110.47,196.07 L 114.92,196.00 L 117.50,196.00 L 122.73,196.40 L 125.33,196.67 L 128.43,197.21 L 126.01,196.88 L 121.02,196.33 L 118.40,196.22 L 114.38,196.09 L 112.17,196.06 L 111.28,196.09 L 109.64,196.17 L 109.01,196.27 L 107.88,196.50 L 107.47,196.68 L 106.77,197.08 L 106.56,197.36 L 106.22,197.96 L 106.17,198.35 L 106.14,199.18 L 106.21,199.70 L 106.41,200.80 L 106.58,201.45 L 107.14,202.73 L 107.85,203.30 L 108.56,203.48 L 109.34,203.65 L 109.86,203.72 L 110.97,203.85 L 111.68,203.91 L 113.20,204.02 L 114.14,204.07 L 116.13,204.18 L 117.33,204.24 L 123.05,204.70 L 126.65,205.19 L 128.37,205.54 L 131.76,206.31 L 133.40,206.80 L 136.65,207.87 L 138.24,208.53 L 141.42,209.92 L 143.00,210.76 L 146.18,212.52 L 147.80,213.54 L 151.04,215.70 L 152.72,216.93 L 156.11,219.50 L 157.89,220.95 L 160.18,222.80 L 161.16,223.54 L 163.05,224.91 L 163.88,225.41 L 165.47,226.29 L 166.20,226.55 L 167.62,226.95 L 168.31,226.97 L 169.67,226.90 L 170.37,226.68 L 171.78,226.14 L 172.54,225.69 L 174.12,224.68 L 175.02,224.00 L 176.88,222.53 L 177.95,221.62 L 182.99,217.60 L 186.29,215.21 L 187.92,214.16 L 191.19,212.15 L 192.83,211.28 L 196.12,209.62 L 197.79,208.92 L 201.15,207.60 L 202.87,207.05 L 206.33,206.05 L 208.13,205.65 L 211.76,204.94 L 213.65,204.68 L 217.49,204.24 L 219.50,204.12 L 229.50,203.50 L 229.82,199.62 L 230.05,196.75 L 230.87,197.75 L 231.16,198.30 L 231.43,199.34 L 231.30,200.37 L 231.12,200.54 L 231.16,200.81 L 231.70,201.00 L 231.81,201.00 L 232.06,200.77 L 232.18,200.62 L 232.43,200.14 L 232.69,199.60 L 233.17,197.98 L 233.40,197.12 L 233.74,195.17 L 233.99,192.32 L 233.99,192.15 L 233.78,191.83 L 233.64,191.67 L 233.19,191.39 L 231.25,190.82 L 234.00,191.13 L 234.00,203.37 L 233.72,210.98 L 233.24,215.79 L 232.86,218.07 L 231.99,222.55 L 231.39,224.68 L 230.10,228.89 L 229.30,230.90 L 227.57,234.87 L 226.54,236.78 L 224.37,240.55 L 223.11,242.38 L 220.47,246.00 L 218.97,247.77 L 215.84,251.28 L 214.10,253.01 L 207.36,258.93 L 202.71,262.28 L 200.27,263.68 L 195.31,266.29 L 192.67,267.35 L 187.28,269.29 L 184.39,270.03 L 179.94,271.04 L 177.70,271.36 L 173.19,271.88 L 170.93,271.97 L 166.40,272.01 L 164.13,271.86 L 159.61,271.43 L 157.36,271.04 L 152.88,270.14 L 150.66,269.52 L 146.25,268.16 L 144.09,267.31 L 139.78,265.50 L 137.68,264.42 L 133.52,262.15 L 131.50,260.85 L 128.82,258.88 L 126.87,257.25 L 125.86,256.30 L 121.69,252.19 L 119.63,249.87 L 115.60,245.10 L 113.87,242.74 L 112.21,240.41 L 111.49,239.29 L 110.15,237.11 L 109.62,236.11 L 107.78,232.44 L 106.72,230.15 L 106.28,229.06 L 104.70,224.74 L 104.17,222.45 L 103.67,220.11 L 103.47,218.85 L 103.10,216.26 L 102.96,214.83 L 102.69,211.86 L 102.58,210.19 L 102.38,206.72 L 102.30,204.75 L 101.72,191.00 L 104.39,191.00 M 149.78,202.84 L 150.06,203.29 L 150.10,203.46 L 150.11,203.75 L 150.01,203.82 L 149.72,203.91 L 149.53,203.87 L 149.84,203.63 L 149.93,203.45 L 149.78,202.83 M 137.75,199.41 L 139.14,199.94 L 135.84,198.88 M 130.46,197.57 L 132.98,198.07 L 135.67,198.83 L 133.33,198.26 L 128.54,197.23 M 203.29,198.15 L 203.46,198.10 L 203.47,198.10 M 204.33,197.90 L 205.79,197.55 L 205.80,197.55 M 207.20,197.33 L 210.46,196.84 L 210.53,196.84 M 218.32,196.24 L 210.63,196.83 L 218.15,196.24 L 219.51,196.19 L 219.77,196.18 M 132.72,193.91 L 134.66,194.54 L 138.46,195.87 L 140.25,196.66 L 140.57,196.81 L 139.93,196.54 L 138.60,196.01 L 135.74,195.01 L 134.28,194.52 L 131.25,193.64 L 122.10,191.69 L 128.61,192.88 M 189.31,202.84 L 187.75,203.49 L 189.31,202.84 Z" fill="rgba(83,85,119,1)"/>
<path d="M 160.49,183.71 L 162.48,186.80 L 164.98,191.80 L 165.32,192.63 L 166.00,194.11 L 166.33,194.80 L 166.95,195.93 L 167.24,196.43 L 167.71,197.08 L 168.20,197.38 L 168.30,197.32 L 168.73,196.67 L 168.99,196.28 L 169.66,195.09 L 170.01,194.45 L 170.83,192.87 L 171.22,192.08 L 170.40,193.85 L 170.06,194.70 L 169.46,196.35 L 169.28,197.06 L 169.00,198.38 L 169.00,198.89 L 168.74,200.38 L 168.37,201.00 L 168.12,201.00 L 167.51,200.34 L 167.25,199.37 L 167.24,198.75 L 166.98,197.15 L 166.58,195.78 L 166.27,194.98 L 164.82,191.52 L 163.87,189.65 L 161.83,185.89 L 160.77,184.23 L 160.16,183.31 M 210.09,177.58 L 207.05,178.27 L 206.51,178.34 L 205.17,178.65 L 204.46,178.83 L 202.89,179.33 L 201.28,179.86 L 197.80,181.28 L 196.08,182.02 L 193.01,183.58 L 192.31,183.96 L 191.12,184.70 L 189.78,185.70 L 189.09,186.32 L 188.35,187.27 L 188.07,187.69 L 188.10,188.18 L 188.21,188.36 L 188.28,188.36 L 187.51,188.76 L 186.78,189.32 L 186.50,189.63 L 184.98,190.94 L 183.49,192.03 L 182.73,192.51 L 181.36,193.32 L 180.77,193.61 L 180.61,193.63 L 180.37,193.58 L 180.37,193.43 L 180.43,193.05 L 180.54,192.74 L 181.81,190.97 L 183.27,189.61 L 184.24,188.88 L 186.31,187.38 L 187.52,186.62 L 190.04,185.09 L 191.40,184.35 L 197.02,181.48 L 199.75,180.40 L 202.44,179.39 L 203.67,179.03 L 206.04,178.40 L 207.04,178.27 L 210.08,177.58 L 211.47,176.89 M 180.41,178.50 L 178.45,180.67 L 177.12,182.34 L 176.46,183.26 L 173.89,187.10 L 172.78,189.08 L 171.84,190.82 L 172.12,190.24 L 172.72,188.99 L 174.00,186.68 L 174.66,185.55 L 176.07,183.47 L 177.53,181.43 L 180.91,177.98 L 181.10,177.81 M 198.38,184.84 L 197.00,185.33 L 194.01,186.38 L 192.18,187.02 L 191.44,187.27 L 191.60,187.19 L 193.31,186.47 L 194.20,186.11 L 196.18,185.43 L 198.22,184.77 L 200.39,184.24 M 214.31,182.21 L 209.34,182.56 L 207.97,182.72 L 209.81,182.45 L 216.29,182.00 L 218.94,182.00 M 152.82,175.95 L 155.59,178.32 L 155.94,178.64 L 152.65,175.83 M 181.32,177.61 L 181.81,177.16 L 183.08,176.17 M 211.93,176.35 L 211.49,176.87 L 211.49,176.88 L 211.93,176.35 L 212.34,175.66 M 183.36,175.95 L 183.73,175.66 L 183.81,175.61 M 184.24,175.29 L 184.72,174.93 L 185.97,174.15 M 212.64,175.17 L 212.64,175.17 L 212.68,174.90 M 143.16,170.58 L 144.87,171.35 L 141.56,170.04 M 135.83,168.52 L 137.73,168.89 L 138.88,169.23 L 138.09,169.03 L 134.60,168.33 M 130.00,167.81 L 131.99,167.92 L 132.25,167.96 L 130.39,167.85 L 124.50,167.50 M 204.40,167.27 L 202.29,167.55 L 202.86,167.42 L 204.76,167.20 L 207.54,167.19 M 224.11,182.00 L 224.11,182.00 L 223.81,186.25 L 223.50,190.50 L 223.81,186.13 Z" fill="rgba(132,161,137,1)"/>
<path d="M 174.06,42.37 L 176.66,42.69 L 181.84,43.96 L 189.49,46.85 L 190.45,47.30 L 192.15,48.12 L 192.96,48.53 L 194.42,49.31 L 195.84,50.09 L 198.34,51.78 L 199.59,52.68 L 202.27,55.00 L 202.99,55.64 L 204.57,57.13 L 207.26,59.73 L 208.09,60.54 L 209.78,62.51 L 210.63,63.55 L 212.36,65.96 L 213.22,67.22 L 214.96,70.02 L 215.83,71.47 L 217.56,74.64 L 218.42,76.27 L 220.13,79.76 L 220.97,81.54 L 222.63,85.31 L 227.31,97.50 L 228.12,99.83 L 229.59,103.99 L 230.30,106.00 L 231.64,109.62 L 232.30,111.37 L 233.57,114.57 L 234.19,116.13 L 235.44,119.04 L 236.69,121.91 L 239.38,127.32 L 240.09,128.69 L 241.62,131.51 L 244.14,136.00 L 245.11,137.69 L 246.91,140.84 L 247.78,142.38 L 249.40,145.25 L 250.19,146.65 L 251.64,149.27 L 252.35,150.56 L 253.65,152.95 L 254.91,155.30 L 257.03,159.45 L 258.03,161.45 L 259.69,165.07 L 260.48,166.83 L 261.79,170.15 L 262.41,171.79 L 263.47,175.02 L 263.97,176.65 L 264.87,180.03 L 266.16,185.50 L 266.59,187.46 L 267.23,191.63 L 267.52,193.74 L 267.89,198.17 L 268.04,200.40 L 268.13,204.97 L 268.14,207.26 L 267.97,211.88 L 267.85,214.18 L 267.42,218.74 L 267.17,221.01 L 266.47,225.40 L 266.10,227.57 L 265.15,231.71 L 263.46,237.50 L 262.34,240.78 L 259.58,247.15 L 258.12,250.30 L 254.72,256.37 L 252.95,259.36 L 248.96,265.06 L 246.90,267.85 L 242.37,273.13 L 240.04,275.71 L 235.03,280.52 L 232.47,282.85 L 227.01,287.12 L 224.24,289.18 L 218.40,292.86 L 209.26,297.66 L 207.29,298.56 L 203.05,300.19 L 200.90,300.97 L 196.38,302.34 L 194.09,303.00 L 189.39,304.10 L 187.03,304.61 L 182.27,305.43 L 179.89,305.80 L 175.17,306.31 L 172.82,306.52 L 168.26,306.71 L 166.00,306.76 L 161.70,306.60 L 159.59,306.48 L 155.66,305.97 L 153.17,305.58 L 148.29,304.57 L 145.87,304.03 L 141.14,302.73 L 138.80,302.04 L 134.23,300.46 L 131.97,299.64 L 127.58,297.78 L 125.40,296.82 L 121.19,294.70 L 119.10,293.61 L 115.08,291.24 L 113.09,290.02 L 109.27,287.39 L 107.38,286.04 L 103.77,283.18 L 101.99,281.71 L 98.59,278.61 L 96.92,277.03 L 93.76,273.70 L 92.20,272.01 L 89.27,268.46 L 87.84,266.66 L 85.16,262.90 L 83.85,260.99 L 81.42,257.03 L 80.24,255.02 L 78.08,250.86 L 77.04,248.76 L 75.15,244.42 L 72.65,237.69 L 72.14,236.19 L 71.28,233.37 L 70.87,231.98 L 70.18,229.33 L 69.54,226.71 L 68.73,221.52 L 68.57,220.19 L 68.34,217.43 L 68.24,216.03 L 68.14,213.03 L 68.11,211.49 L 68.12,208.15 L 68.26,202.64 L 68.34,200.14 L 68.69,195.43 L 68.89,193.11 L 69.49,188.68 L 69.83,186.49 L 70.73,182.22 L 71.22,180.08 L 72.46,175.84 L 73.12,173.70 L 74.73,169.36 L 75.58,167.17 L 77.60,162.60 L 78.67,160.28 L 81.14,155.38 L 85.40,147.50 L 86.74,145.11 L 89.19,140.65 L 90.38,138.47 L 92.56,134.36 L 93.62,132.34 L 95.56,128.51 L 96.51,126.62 L 98.26,122.99 L 99.96,119.40 L 102.92,112.50 L 106.97,102.00 L 107.68,100.01 L 109.39,95.54 L 110.27,93.27 L 112.13,88.67 L 113.06,86.41 L 114.85,82.22 L 115.29,81.23 L 116.10,79.41 L 117.22,77.00 L 117.76,75.90 L 118.72,73.95 L 119.20,73.01 L 120.09,71.35 L 120.98,69.73 L 122.75,67.04 L 123.66,65.73 L 125.80,63.19 L 126.38,62.53 L 127.68,61.16 L 129.89,58.91 L 132.01,56.79 L 136.50,53.14 L 138.78,51.41 L 143.54,48.55 L 145.94,47.21 L 150.90,45.16 L 153.40,44.23 L 158.51,42.98 L 161.07,42.46 L 166.26,42.05 L 168.85,41.94 M 119.00,177.00 L 108.00,177.00 L 108.00,191.00 L 101.72,191.00 L 102.30,204.75 L 102.38,206.72 L 102.58,210.19 L 102.69,211.86 L 102.96,214.83 L 103.10,216.26 L 103.47,218.85 L 103.67,220.11 L 104.17,222.45 L 104.70,224.74 L 106.28,229.06 L 106.72,230.15 L 107.78,232.44 L 109.62,236.11 L 110.15,237.11 L 111.49,239.29 L 112.21,240.41 L 113.87,242.74 L 115.60,245.10 L 119.63,249.87 L 121.69,252.19 L 125.86,256.30 L 126.87,257.25 L 128.82,258.88 L 131.50,260.85 L 133.52,262.15 L 137.68,264.42 L 139.78,265.50 L 144.09,267.31 L 146.25,268.16 L 150.66,269.52 L 152.88,270.14 L 157.36,271.04 L 159.61,271.43 L 164.13,271.86 L 166.40,272.01 L 170.93,271.97 L 173.19,271.88 L 177.70,271.36 L 179.94,271.04 L 184.39,270.03 L 187.28,269.29 L 192.67,267.35 L 195.31,266.29 L 200.27,263.68 L 202.71,262.28 L 207.36,258.93 L 214.10,253.01 L 215.84,251.28 L 218.97,247.77 L 220.47,246.00 L 223.11,242.38 L 224.37,240.55 L 226.54,236.78 L 227.57,234.87 L 229.30,230.90 L 230.10,228.89 L 231.39,224.68 L 231.99,222.55 L 232.86,218.07 L 233.24,215.79 L 233.72,210.98 L 234.00,203.37 L 234.00,191.13 L 231.25,190.82 L 230.58,190.74 L 229.69,190.50 L 229.30,190.34 L 228.84,189.62 L 228.64,189.17 L 228.43,187.59 L 228.38,187.12 L 228.31,185.95 L 228.21,183.80 L 227.91,177.10 L 217.50,176.50 L 216.50,162.50 L 212.10,162.19 L 210.44,162.07 L 206.50,162.29 L 204.48,162.47 L 200.18,163.21 L 198.04,163.64 L 193.88,164.81 L 188.35,166.93 L 186.59,167.76 L 182.92,170.09 L 181.10,171.33 L 177.68,174.15 L 176.04,175.59 L 173.33,178.49 L 172.72,179.20 L 171.71,180.57 L 170.58,182.48 L 170.12,183.45 L 169.18,184.97 L 168.97,185.29 L 168.59,185.72 L 168.18,186.00 L 168.08,186.00 L 167.75,185.72 L 167.56,185.53 L 167.10,184.94 L 165.52,182.41 L 165.17,181.75 L 164.22,180.37 L 163.71,179.67 L 162.49,178.23 L 161.21,176.79 L 158.04,173.90 L 156.38,172.49 L 152.78,169.94 L 147.36,166.88 L 145.74,166.14 L 142.05,164.87 L 140.15,164.28 L 136.09,163.34 L 134.04,162.92 L 129.86,162.36 L 123.75,162.01 L 119.00,162.00 Z" fill="rgba(147,189,111,1)"/>
<path d="M 157.89,220.95 L 156.11,219.50 L 152.72,216.93 L 151.04,215.70 L 147.80,213.54 L 146.18,212.52 L 143.00,210.76 L 141.42,209.92 L 138.24,208.53 L 136.65,207.87 L 133.40,206.80 L 131.76,206.31 L 128.37,205.54 L 126.65,205.19 L 123.05,204.70 L 117.33,204.24 L 116.13,204.18 L 114.14,204.07 L 113.20,204.02 L 111.68,203.91 L 110.97,203.85 L 109.86,203.72 L 109.34,203.65 L 108.56,203.48 L 107.85,203.30 L 107.14,202.73 L 106.58,201.45 L 106.41,200.80 L 106.21,199.70 L 106.14,199.18 L 106.17,198.35 L 106.22,197.96 L 106.56,197.36 L 106.77,197.08 L 107.47,196.68 L 107.88,196.50 L 109.01,196.27 L 109.64,196.17 L 111.28,196.09 L 112.17,196.06 L 114.38,196.09 L 118.40,196.22 L 121.02,196.33 L 126.01,196.88 L 128.48,197.22 L 133.33,198.26 L 135.76,198.85 L 140.68,200.44 L 148.39,203.49 L 148.83,203.68 L 149.45,203.85 L 149.72,203.91 L 150.01,203.82 L 150.11,203.75 L 150.10,203.46 L 150.06,203.29 L 149.78,202.84 L 149.45,202.36 L 148.12,201.13 L 145.42,199.26 L 143.77,198.31 L 140.25,196.66 L 138.46,195.87 L 134.66,194.54 L 132.72,193.91 L 128.61,192.88 L 122.10,191.69 L 113.50,190.47 L 113.19,186.10 L 112.87,181.73 L 122.69,182.24 L 124.97,182.36 L 128.87,182.78 L 130.77,183.03 L 134.39,183.83 L 136.23,184.30 L 140.23,185.66 L 141.28,186.05 L 143.58,186.95 L 147.39,188.52 L 147.74,188.67 L 148.25,188.82 L 148.47,188.87 L 148.75,188.83 L 148.87,188.78 L 148.93,188.53 L 148.82,187.91 L 148.71,187.57 L 148.00,186.78 L 147.57,186.36 L 146.30,185.45 L 145.60,184.98 L 143.88,183.99 L 142.97,183.50 L 140.90,182.49 L 138.77,181.50 L 133.94,179.66 L 126.70,177.56 L 126.04,177.41 L 125.15,177.10 L 124.77,176.92 L 124.35,176.34 L 124.18,175.98 L 124.09,174.85 L 124.20,172.22 L 124.50,167.50 L 130.39,167.85 L 132.99,168.01 L 138.09,169.03 L 140.61,169.66 L 145.41,171.57 L 147.75,172.62 L 152.05,175.32 L 157.73,180.16 L 158.19,180.65 L 159.19,181.93 L 159.71,182.62 L 160.77,184.23 L 161.83,185.89 L 163.87,189.65 L 164.82,191.52 L 166.27,194.98 L 166.58,195.78 L 166.98,197.15 L 167.24,198.75 L 167.25,199.37 L 167.51,200.34 L 168.12,201.00 L 168.37,201.00 L 168.74,200.38 L 169.00,198.89 L 169.00,198.38 L 169.28,197.06 L 169.46,196.35 L 170.06,194.70 L 170.40,193.85 L 171.26,191.99 L 171.72,191.05 L 172.78,189.08 L 173.89,187.10 L 176.46,183.26 L 177.12,182.34 L 178.45,180.67 L 180.41,178.50 L 181.22,177.69 L 183.12,176.14 L 184.11,175.37 L 186.29,173.94 L 188.53,172.53 L 193.49,170.23 L 194.73,169.71 L 197.24,168.85 L 198.49,168.44 L 200.92,167.84 L 202.12,167.57 L 204.40,167.27 L 207.54,167.19 L 212.50,167.50 L 212.81,171.32 L 212.91,172.52 L 212.77,174.34 L 212.64,175.17 L 211.93,176.35 L 211.49,176.88 L 210.08,177.58 L 207.04,178.27 L 206.04,178.40 L 203.67,179.03 L 202.44,179.39 L 199.75,180.40 L 197.02,181.48 L 191.40,184.35 L 190.04,185.09 L 187.52,186.62 L 186.31,187.38 L 184.24,188.88 L 183.27,189.61 L 181.81,190.97 L 180.54,192.74 L 180.43,193.05 L 180.37,193.43 L 180.37,193.58 L 180.61,193.63 L 180.77,193.61 L 181.36,193.32 L 182.73,192.51 L 183.49,192.03 L 184.98,190.94 L 186.50,189.63 L 186.78,189.32 L 187.51,188.76 L 188.50,188.25 L 188.64,188.21 L 189.48,187.94 L 189.98,187.77 L 191.41,187.28 L 192.18,187.02 L 194.01,186.38 L 197.00,185.33 L 198.38,184.84 L 201.02,184.06 L 202.34,183.70 L 205.02,183.16 L 206.39,182.91 L 209.34,182.56 L 214.31,182.21 L 224.13,181.76 L 223.81,186.13 L 223.50,190.50 L 214.78,191.65 L 212.16,191.99 L 207.68,192.81 L 205.54,193.25 L 201.74,194.35 L 199.90,194.95 L 196.44,196.44 L 191.27,199.23 L 190.02,199.98 L 188.08,201.39 L 187.66,201.72 L 186.97,202.32 L 186.66,202.60 L 186.22,203.08 L 186.04,203.30 L 185.89,203.63 L 185.85,203.77 L 186.00,203.91 L 186.12,203.95 L 186.61,203.88 L 187.75,203.49 L 189.32,202.84 L 192.21,201.71 L 193.62,201.16 L 196.24,200.23 L 198.81,199.34 L 203.50,198.09 L 205.83,197.54 L 210.53,196.84 L 218.32,196.24 L 230.14,195.75 L 229.82,199.62 L 229.50,203.50 L 219.50,204.12 L 217.49,204.24 L 213.65,204.68 L 211.76,204.94 L 208.13,205.65 L 206.33,206.05 L 202.87,207.05 L 201.15,207.60 L 197.79,208.92 L 196.12,209.62 L 192.83,211.28 L 191.19,212.15 L 187.92,214.16 L 186.29,215.21 L 182.99,217.60 L 177.95,221.62 L 176.88,222.53 L 175.02,224.00 L 174.12,224.68 L 172.54,225.69 L 171.78,226.14 L 170.37,226.68 L 169.67,226.90 L 168.31,226.97 L 167.62,226.95 L 166.20,226.55 L 165.47,226.29 L 163.88,225.41 L 163.05,224.91 L 161.16,223.54 L 160.18,222.80 Z" fill="rgba(221,237,240,1)"/>
</g>
</svg>