<?xml version="1.0" standalone="no"?>
<!DOCTYPE svg PUBLIC "-//W3C//DTD SVG 20010904//EN"
 "http://www.w3.org/TR/2001/REC-SVG-20010904/DTD/svg10.dtd">
<svg version="1.0" xmlns="http://www.w3.org/2000/svg"
 width="231.326945pt" height="295.374785pt" viewBox="0 0 231.326945 295.374785"
 preserveAspectRatio="xMidYMid meet">
<metadata>
Created by potrace 1.12, written by Peter Selinger 2001-2015
</metadata>
<g transform="translate(-52.003797,313.543559) scale(0.100000,-0.100000)"
fill="#000000" stroke="none">
<path d="M1585 3131 c-207 -34 -385 -152 -502 -333 -57 -87 -86 -152 -158
-353 -64 -177 -93 -238 -218 -462 -130 -234 -187 -431 -187 -647 0 -450 254
-848 667 -1048 145 -70 265 -99 439 -105 341 -13 627 97 865 333 226 223 343
507 342 829 0 235 -64 446 -208 680 -66 108 -163 317 -209 451 -24 72 -58 161
-75 198 -100 222 -288 388 -495 441 -75 19 -196 26 -261 16z m189 -162 c117
-21 261 -112 337 -212 51 -68 98 -169 159 -337 57 -159 150 -361 209 -455 83
-131 147 -277 178 -407 27 -113 24 -345 -6 -463 -125 -487 -602 -815 -1092
-750 -175 23 -304 70 -442 164 -177 119 -323 311 -390 511 -45 134 -60 333
-37 480 21 132 97 316 208 507 71 122 118 223 172 373 79 220 138 337 212 416
141 151 304 208 492 173z"/>
<path d="M1189 1773 c0 -5 0 -36 1 -69 l1 -62 -58 -7 -58 -6 0 -67 0 -67 -30
-3 -30 -3 7 -142 c7 -155 22 -219 70 -307 160 -289 483 -420 789 -321 201 65
350 212 420 417 26 76 32 108 36 222 l6 132 -32 0 -31 0 0 75 0 75 -55 0 -55
0 0 70 0 70 -67 0 c-174 0 -349 -93 -407 -215 l-18 -37 -20 41 c-24 50 -105
124 -170 157 -26 13 -76 31 -110 39 -66 15 -187 20 -189 8z m181 -59 c80 -18
170 -72 218 -130 18 -21 45 -69 60 -106 27 -67 42 -85 42 -50 0 32 59 139 100
181 65 67 192 121 288 121 l42 0 0 -49 0 -50 -55 -11 c-68 -14 -158 -59 -210
-105 l-40 -35 77 39 c87 43 218 74 293 69 54 -3 52 0 46 -79 -1 -13 -17 -17
-79 -22 -44 -3 -106 -16 -138 -28 -63 -24 -180 -94 -204 -124 -11 -14 -5 -12
25 7 101 63 281 111 396 106 l64 -3 0 -40 0 -40 -100 -6 c-156 -10 -287 -63
-405 -167 -98 -85 -121 -85 -222 0 -130 110 -245 157 -405 165 l-103 6 0 45 0
45 103 -6 c138 -8 275 -48 372 -110 24 -15 21 -11 -10 18 -44 40 -154 97 -225
115 -25 7 -74 15 -110 19 l-65 6 0 45 0 45 44 3 c70 5 199 -25 284 -66 42 -21
77 -35 77 -31 0 4 -27 25 -60 48 -63 41 -141 75 -203 86 -37 7 -37 8 -37 56
l0 49 36 0 c19 0 66 -7 104 -16z"/>
</g>
</svg>
